<?xml version="1.0" standalone="no"?>
<!DOCTYPE svg PUBLIC "-//W3C//DTD SVG 20010904//EN"
 "http://www.w3.org/TR/2001/REC-SVG-20010904/DTD/svg10.dtd">
<svg version="1.0" xmlns="http://www.w3.org/2000/svg"
 width="1280.000000pt" height="1280.000000pt" viewBox="0 0 1280.000000 1280.000000"
 preserveAspectRatio="xMidYMid meet">
<metadata>
Created by potrace 1.14, written by Peter Selinger 2001-2017
</metadata>
<g transform="translate(0.000000,1280.000000) scale(0.100000,-0.100000)"
fill="#000000" stroke="none">
<path d="M5842 12718 c-15 -18 -34 -39 -42 -48 -8 -9 -42 -47 -75 -85 -33 -39
-74 -86 -91 -105 -47 -53 -132 -150 -176 -200 -22 -25 -52 -59 -66 -76 -52
-58 -131 -149 -149 -170 -53 -62 -141 -160 -160 -180 -13 -13 -23 -25 -23 -28
0 -3 -12 -18 -27 -34 -16 -16 -53 -58 -83 -92 -30 -35 -59 -68 -65 -74 -5 -6
-39 -45 -74 -86 -36 -41 -70 -79 -75 -85 -6 -5 -36 -39 -66 -75 -30 -35 -62
-72 -70 -80 -8 -9 -32 -36 -54 -59 -23 -26 -41 -39 -45 -32 -6 9 -193 203
-481 500 -41 43 -176 183 -300 311 -124 128 -259 268 -300 311 -41 42 -117
120 -167 173 -51 53 -97 96 -103 96 -9 0 -88 -47 -100 -60 -3 -3 -28 -20 -56
-38 -28 -18 -62 -41 -74 -52 -12 -11 -27 -17 -31 -14 -5 3 -9 1 -9 -4 0 -5
-24 -24 -52 -42 -29 -19 -54 -38 -56 -42 -2 -4 -7 -8 -12 -8 -7 0 -355 -230
-419 -277 -13 -10 -28 -18 -33 -18 -5 0 -12 -4 -16 -10 -11 -15 -70 -55 -82
-55 -5 0 -10 -4 -10 -10 0 -5 -7 -10 -15 -10 -8 0 -15 -4 -15 -10 0 -5 -7 -10
-15 -10 -8 0 -15 -3 -15 -8 0 -4 -9 -12 -19 -17 -22 -11 -231 -149 -247 -163
-6 -5 -40 -28 -77 -52 -37 -23 -67 -46 -67 -51 0 -5 -3 -8 -8 -6 -12 4 -112
-64 -112 -77 0 -6 21 -35 48 -63 26 -29 68 -76 94 -105 25 -29 59 -67 75 -85
15 -17 51 -57 78 -89 28 -31 67 -75 87 -96 21 -22 38 -41 38 -43 0 -2 18 -23
40 -45 22 -22 40 -43 40 -45 0 -2 17 -21 38 -43 20 -21 57 -63 82 -92 25 -29
59 -67 75 -84 31 -34 143 -159 182 -205 13 -14 23 -39 24 -56 0 -16 1 -805 1
-1752 l1 -1723 -132 -130 c-72 -72 -131 -135 -131 -141 0 -10 74 -59 90 -59 5
0 10 -4 10 -10 0 -5 4 -10 9 -10 5 0 59 -31 120 -70 62 -38 116 -70 120 -70 5
0 11 -4 13 -8 2 -4 32 -26 68 -47 36 -21 67 -43 68 -47 2 -4 8 -8 14 -8 5 0
41 -20 79 -45 38 -25 74 -45 79 -45 6 0 10 -4 10 -8 0 -5 12 -14 28 -21 15 -7
50 -27 77 -45 86 -57 140 -90 145 -91 3 0 25 -14 50 -30 25 -17 57 -37 73 -44
15 -8 27 -18 27 -23 0 -5 4 -7 8 -4 5 3 18 -2 28 -12 21 -18 51 -37 95 -59 15
-7 32 -20 39 -28 7 -8 16 -15 20 -15 11 0 304 -183 308 -192 2 -5 7 -8 12 -8
4 0 54 -29 111 -64 57 -36 142 -88 189 -117 47 -28 108 -67 137 -85 28 -19 56
-34 61 -34 6 0 12 -4 14 -8 2 -4 20 -18 42 -30 43 -26 31 -33 111 63 22 26 49
58 60 70 11 13 34 40 50 60 17 20 35 42 40 49 14 15 160 187 255 301 41 50 83
97 93 106 9 9 17 20 17 24 0 4 6 13 13 19 8 6 61 67 118 136 57 69 109 130
115 135 6 6 40 46 75 90 35 44 69 85 75 90 6 6 33 37 60 70 27 33 55 64 62 68
13 9 -1 47 -18 47 -11 0 -224 132 -228 142 -2 5 -8 8 -14 8 -5 0 -29 14 -53
30 -24 17 -48 30 -54 30 -6 0 -11 5 -11 10 0 6 -7 10 -15 10 -8 0 -15 5 -15
10 0 6 -4 10 -9 10 -9 0 -222 129 -231 140 -3 4 -12 9 -20 12 -8 4 -78 46
-155 95 l-139 89 3 514 c6 1158 10 1988 11 2380 l1 415 185 180 c102 99 226
219 276 268 50 48 93 87 97 87 4 0 22 -39 41 -87 18 -49 41 -106 50 -128 9
-22 27 -67 39 -100 13 -33 28 -71 34 -85 6 -14 10 -28 9 -32 -1 -5 2 -8 6 -8
5 0 9 -6 9 -12 0 -11 99 -268 123 -323 5 -11 19 -45 30 -75 12 -30 28 -70 37
-89 8 -18 16 -39 18 -45 1 -6 6 -20 10 -31 49 -121 95 -244 95 -254 0 -6 5
-11 12 -11 6 0 8 -3 5 -6 -3 -4 -2 -15 4 -26 8 -15 17 -18 42 -12 18 3 37 9
42 12 6 4 15 7 20 8 6 1 62 19 125 40 63 21 120 39 125 40 6 1 60 19 120 39
61 21 117 39 125 41 8 1 71 21 140 44 69 23 136 43 149 46 14 3 29 8 35 12 6
4 14 7 19 8 4 1 9 3 12 4 6 3 4 2 68 20 26 7 47 17 47 22 0 5 4 7 8 4 5 -3 56
10 113 28 57 19 205 66 329 106 124 40 226 74 228 75 3 3 -42 91 -68 135 -17
29 -88 156 -125 225 -21 39 -46 82 -56 96 -10 14 -16 29 -12 33 3 3 1 6 -6 6
-7 0 -9 5 -6 10 3 6 3 10 -2 10 -4 0 -13 10 -19 23 -37 74 -48 94 -62 110 -8
9 -11 17 -6 17 5 0 4 4 -2 8 -6 4 -28 41 -50 82 -21 41 -42 77 -46 78 -4 2 -8
7 -8 12 0 4 -27 57 -60 116 -33 59 -60 111 -60 115 0 4 -4 9 -8 11 -4 2 -18
23 -30 48 -12 25 -34 65 -48 90 -14 25 -37 65 -51 90 -13 25 -32 59 -42 75
-17 29 -73 131 -116 210 -12 22 -34 60 -48 85 -15 25 -39 69 -54 98 -15 28
-31 52 -36 52 -4 0 -67 -38 -138 -85 -72 -47 -133 -85 -137 -85 -4 0 -15 -9
-25 -20 -9 -11 -24 -20 -32 -20 -8 0 -15 -4 -15 -10 0 -5 -5 -10 -12 -10 -6 0
-26 -11 -44 -25 -18 -14 -37 -25 -42 -25 -5 0 -17 -9 -27 -20 -10 -11 -22 -20
-27 -20 -5 0 -49 -27 -99 -61 -88 -59 -121 -71 -82 -32 20 21 48 53 138 158
33 39 65 74 72 78 7 4 13 12 13 17 0 5 12 22 28 38 24 25 69 77 129 148 76 90
110 129 133 152 15 15 29 34 32 42 3 10 -31 38 -106 89 -61 40 -121 83 -133
94 -13 11 -23 17 -23 13 0 -4 -7 -1 -15 6 -33 30 -45 38 -55 38 -5 0 -10 3
-10 8 0 4 -12 12 -26 19 -23 10 -28 9 -52 -19z"/>
<path d="M6100 9840 c0 -5 -16 -34 -35 -64 -19 -30 -35 -60 -35 -66 0 -5 -4
-10 -8 -10 -4 0 -13 -12 -20 -27 -17 -39 -44 -87 -51 -93 -3 -3 -13 -18 -21
-35 -17 -33 -54 -93 -70 -112 -6 -7 -9 -13 -6 -13 3 0 -42 -78 -99 -174 -57
-96 -106 -184 -110 -195 -3 -12 -10 -21 -14 -21 -7 0 -32 -43 -36 -60 0 -3
-13 -24 -28 -48 -15 -23 -35 -58 -44 -77 -9 -19 -20 -35 -25 -35 -4 0 -8 -5
-8 -10 0 -6 -27 -57 -60 -113 -67 -112 -72 -122 -109 -187 -14 -25 -29 -46
-33 -48 -4 -2 -8 -7 -8 -12 0 -4 120 -68 268 -141 147 -73 270 -137 273 -142
3 -5 9 -8 13 -7 4 1 54 -21 110 -50 l104 -52 0 -3979 c0 -2189 2 -3982 4
-3984 2 -2 15 1 28 8 51 26 165 72 173 69 4 -1 7 2 7 8 0 5 6 10 13 10 7 0 30
9 52 20 22 11 42 20 46 20 4 0 36 13 71 29 35 16 112 50 173 76 60 25 128 55
152 66 69 31 97 42 106 41 4 -1 7 3 7 10 0 6 3 8 7 5 3 -4 12 -2 20 4 7 6 13
8 13 4 0 -4 6 -3 13 3 6 5 44 23 82 40 39 16 171 74 295 127 124 53 243 105
265 114 44 20 90 40 150 67 22 9 49 19 60 21 11 2 22 8 23 13 2 6 8 10 14 10
9 0 65 22 98 39 17 9 16 -111 6 1614 -3 515 -3 937 -1 937 2 0 16 -26 31 -57
89 -189 285 -597 336 -700 27 -54 33 -61 49 -52 11 5 19 7 19 3 0 -3 7 -1 15
6 8 7 15 10 15 7 0 -3 37 6 82 20 45 14 89 26 97 28 28 7 305 86 321 92 8 3
20 7 25 8 6 2 60 17 120 35 123 36 215 61 230 64 6 1 15 4 20 8 9 5 69 20 80
19 2 0 34 10 69 23 36 13 67 22 70 19 2 -2 17 2 34 11 16 8 32 13 34 10 3 -3
29 4 58 15 29 11 57 18 62 15 4 -3 8 0 8 7 0 7 2 10 6 7 3 -3 26 1 52 9 26 8
54 16 62 18 8 2 40 11 70 20 30 9 80 23 110 31 30 8 61 17 68 19 7 3 14 5 17
5 3 0 23 7 45 15 22 8 40 12 40 9 0 -2 9 0 21 6 11 6 30 13 41 15 11 3 46 12
77 21 31 9 63 18 71 19 8 2 16 4 18 5 2 3 7 4 47 14 17 4 41 11 55 16 14 5 52
16 85 26 61 18 76 29 69 48 -5 16 -14 66 -19 106 -2 19 -7 46 -10 60 -3 14 -8
44 -10 67 l-5 41 53 -3 c57 -4 156 -13 227 -20 25 -3 77 -7 115 -10 39 -3 87
-7 108 -9 l37 -5 1 42 c1 23 0 58 0 77 -3 73 -12 716 -10 745 0 17 1 35 1 40
-1 28 -14 895 -16 1121 -2 144 -6 266 -10 273 -4 6 -4 11 1 11 4 0 7 24 6 53
-1 28 -5 232 -8 452 -2 220 -7 553 -10 740 -4 187 -6 346 -6 353 1 6 1 18 2
25 3 40 -13 893 -17 896 -5 6 -21 8 -89 15 -27 3 -61 7 -75 10 -14 2 -54 7
-90 10 -111 11 -195 20 -277 31 -106 14 -250 28 -290 29 -18 1 -33 4 -33 7 0
4 -8 6 -17 6 -16 -1 -151 13 -178 18 -5 1 -23 3 -39 3 -44 3 -28 10 34 16 30
3 69 8 85 10 87 12 169 23 235 31 25 3 56 8 70 10 27 5 99 16 140 20 14 2 25
4 25 5 0 1 20 3 45 5 25 2 54 5 65 8 11 3 47 8 80 12 92 11 100 12 100 14 0 2
16 4 35 6 40 3 136 14 163 18 25 4 46 27 25 27 -10 0 -44 16 -77 35 -32 19
-62 35 -64 35 -4 0 -37 18 -164 91 -17 9 -34 15 -37 12 -3 -4 -6 -1 -6 6 0 7
-4 9 -10 6 -5 -3 -10 -2 -10 3 0 5 -15 15 -32 23 -18 7 -35 15 -38 18 -3 3
-27 17 -55 31 -27 13 -52 27 -55 30 -3 3 -27 16 -55 30 -27 13 -52 27 -55 30
-3 3 -34 20 -70 37 -94 47 -213 113 -225 124 -5 5 -17 9 -27 9 -10 0 -18 5
-18 10 0 6 -5 10 -11 10 -6 0 -24 9 -40 21 -16 11 -29 17 -29 13 0 -3 -6 -1
-13 5 -8 6 -43 26 -78 44 -35 19 -80 43 -99 54 -19 11 -64 35 -100 53 -36 19
-77 42 -91 52 -14 9 -28 15 -31 12 -3 -2 -11 2 -18 11 -7 8 -17 15 -22 15 -6
0 -23 9 -39 21 -16 11 -29 17 -29 13 0 -3 -6 -2 -12 4 -15 11 -77 45 -327 179
-46 25 -91 49 -101 55 -12 8 -33 6 -76 -7 -32 -9 -61 -17 -64 -17 -3 0 -21 -6
-40 -14 -19 -8 -37 -15 -40 -15 -3 0 -23 -5 -45 -11 -22 -6 -42 -12 -45 -13
-9 -2 -125 -37 -150 -46 -25 -8 -197 -61 -215 -65 -5 -2 -19 -5 -30 -8 -11 -3
-51 -15 -90 -26 -38 -12 -81 -24 -95 -27 -14 -3 -30 -10 -37 -15 -7 -5 -17 -7
-23 -3 -5 3 -10 2 -10 -3 0 -5 -6 -9 -12 -10 -19 -1 -48 -9 -99 -26 -25 -9
-54 -17 -65 -19 -10 -1 -25 -6 -32 -11 -7 -4 -23 -9 -35 -11 -12 -1 -42 -9
-67 -17 -25 -9 -88 -27 -140 -42 -52 -15 -104 -31 -115 -36 -25 -11 -57 -20
-92 -26 -15 -3 -31 -8 -37 -12 -6 -3 -15 -7 -21 -8 -19 -4 -187 -54 -194 -58
-4 -3 -18 -7 -32 -10 -13 -2 -69 -18 -124 -35 -55 -18 -107 -33 -116 -35 -8
-2 -39 -11 -69 -20 -52 -15 -53 -15 -72 7 -21 23 -151 163 -256 275 -35 37
-84 90 -110 117 -289 311 -312 333 -312 305z m3119 -2067 c1 -351 4 -1005 6
-1453 7 -1623 7 -1773 -7 -1782 -7 -4 -34 -11 -60 -14 -27 -4 -48 -10 -48 -15
0 -5 -7 -6 -15 -3 -8 4 -15 1 -15 -6 0 -6 -4 -9 -9 -6 -4 3 -23 1 -42 -5 -19
-5 -42 -12 -51 -15 -10 -2 -26 -6 -35 -9 -10 -2 -36 -9 -58 -15 -22 -6 -47
-12 -55 -15 -34 -9 -426 -116 -440 -120 -8 -2 -47 -12 -87 -23 -40 -11 -75
-17 -78 -14 -3 3 -5 1 -5 -5 0 -10 -94 -30 -96 -21 0 1 -7 -2 -15 -9 -8 -6
-26 -14 -39 -17 -14 -3 -48 -11 -77 -19 -36 -10 -53 -11 -56 -3 -2 6 -2 83 -1
171 2 162 7 701 29 3373 2 266 6 486 9 490 3 3 18 7 33 8 26 3 46 6 141 20 21
3 54 7 73 9 19 2 34 4 34 5 0 1 11 3 25 5 23 3 56 7 160 21 51 7 75 11 75 13
0 1 23 4 50 6 28 2 61 6 74 9 13 3 41 6 63 8 22 1 42 6 44 10 3 5 9 6 13 3 5
-2 35 0 67 5 32 5 82 12 109 16 28 3 57 8 66 9 9 2 40 6 70 10 30 4 55 8 56 9
2 1 22 3 46 4 l43 3 3 -638z"/>
</g>
</svg>
